# xmcd
#
# Track frame offsets:
#	150
#	18804
#	39407
#	62800
#	83165
#	103196
#	121506
#	138722
#	159724
#	175789
#	197410
#	212112
#	227158
#	248753
#	265857
#
# Disc length: 3767 seconds
#
# Revision: 1
# Processed by: cddbd v1.5.2PL0 Copyright (c) Steve Scherf et al.
# Submitted via: EasyCDDAExtractor 15.3.0.1
#
DISCID=c50eb50f
DTITLE=Alex Ubago - Siempre En Mi Mente
DYEAR=2007
DGENRE=Latin
TTITLE0=Que Pides Tu
TTITLE1=A Gritos De Esperanza
TTITLE2=Sin Miedo A Nada
TTITLE3=Hay Que Ver
TTITLE4=Aunque No Te Pueda Ver
TTITLE5=Dame Tu Aire
TTITLE6=Cuanto Antes
TTITLE7=Fantasia O Realidad
TTITLE8=Viajar Contigo
TTITLE9=Sigo Buscando
TTITLE10=Siempre En Mi Mente
TTITLE11=Temblando (Hombres G) (Bonus Track)
TTITLE12=La Estatua Del Jardin Botanico (Radio Futura) (Bonus Track)
TTITLE13=Esos Ojos Negros (Duncan Dhu) (Bonus Track)
TTITLE14=Sigo Aqui (B.S.O. El Planeta Del Tesoro) (Bonus Track)
EXTD=YEAR: 2007
EXTT0=
EXTT1=
EXTT2=
EXTT3=
EXTT4=
EXTT5=
EXTT6=
EXTT7=
EXTT8=
EXTT9=
EXTT10=
EXTT11=
EXTT12=
EXTT13=
EXTT14=
PLAYORDER=
